<?xml version="1.0" encoding="UTF-8"?>
<svg width="319px" height="65px" viewBox="0 0 319 65" version="1.1" xmlns="http://www.w3.org/2000/svg">
    <defs></defs>
    <g id="Icon_v2" stroke="none" stroke-width="1" fill="none" fill-rule="evenodd">
        <g id="Group" transform="translate(28.000000, 18.000000)" fill="#fff">
            <path d="M66.936,19.736 L59.832,19.736 L58.512,23 L53.664,23 L61.08,6.2 L65.76,6.2 L73.2,23 L68.256,23 L66.936,19.736 Z M65.544,16.232 L63.384,10.856 L61.224,16.232 L65.544,16.232 Z M81.024,16.904 L79.248,18.8 L79.248,23 L74.544,23 L74.544,6.2 L79.248,6.2 L79.248,13.184 L85.752,6.2 L90.984,6.2 L84.12,13.64 L91.344,23 L85.824,23 L81.024,16.904 Z M101.064,23.336 C99.2879911,23.336 97.6920071,22.9600038 96.276,22.208 C94.8599929,21.4559962 93.748004,20.4160066 92.94,19.088 C92.131996,17.7599934 91.728,16.2640083 91.728,14.6 C91.728,12.9359917 92.131996,11.4400066 92.94,10.112 C93.748004,8.78399336 94.8599929,7.74400376 96.276,6.992 C97.6920071,6.23999624 99.2879911,5.864 101.064,5.864 C102.840009,5.864 104.435993,6.23999624 105.852,6.992 C107.268007,7.74400376 108.379996,8.78399336 109.188,10.112 C109.996004,11.4400066 110.4,12.9359917 110.4,14.6 C110.4,16.2640083 109.996004,17.7599934 109.188,19.088 C108.379996,20.4160066 107.268007,21.4559962 105.852,22.208 C104.435993,22.9600038 102.840009,23.336 101.064,23.336 Z M101.064,19.4 C101.912004,19.4 102.679997,19.200002 103.368,18.8 C104.056003,18.399998 104.599998,17.8360036 105,17.108 C105.400002,16.3799964 105.6,15.5440047 105.6,14.6 C105.6,13.6559953 105.400002,12.8200036 105,12.092 C104.599998,11.3639964 104.056003,10.800002 103.368,10.4 C102.679997,9.999998 101.912004,9.8 101.064,9.8 C100.215996,9.8 99.4480034,9.999998 98.76,10.4 C98.0719966,10.800002 97.528002,11.3639964 97.128,12.092 C96.727998,12.8200036 96.528,13.6559953 96.528,14.6 C96.528,15.5440047 96.727998,16.3799964 97.128,17.108 C97.528002,17.8360036 98.0719966,18.399998 98.76,18.8 C99.4480034,19.200002 100.215996,19.4 101.064,19.4 Z M118.8,23.336 C117.439993,23.336 116.120006,23.1680017 114.84,22.832 C113.559994,22.4959983 112.520004,22.0480028 111.72,21.488 L113.28,17.984 C114.032004,18.4800025 114.903995,18.8799985 115.896,19.184 C116.888005,19.4880015 117.863995,19.64 118.824,19.64 C120.648009,19.64 121.56,19.1840046 121.56,18.272 C121.56,17.7919976 121.300003,17.4360012 120.78,17.204 C120.259997,16.9719988 119.424006,16.7280013 118.272,16.472 C117.007994,16.1999986 115.952004,15.9080016 115.104,15.596 C114.255996,15.2839984 113.528003,14.7840034 112.92,14.096 C112.311997,13.4079966 112.008,12.4800058 112.008,11.312 C112.008,10.2879949 112.287997,9.36400412 112.848,8.54 C113.408003,7.71599588 114.243994,7.0640024 115.356,6.584 C116.468006,6.1039976 117.831992,5.864 119.448,5.864 C120.552006,5.864 121.639995,5.98799876 122.712,6.236 C123.784005,6.48400124 124.727996,6.8479976 125.544,7.328 L124.08,10.856 C122.479992,9.99199568 120.928008,9.56 119.424,9.56 C118.479995,9.56 117.792002,9.6999986 117.36,9.98 C116.927998,10.2600014 116.712,10.6239978 116.712,11.072 C116.712,11.5200022 116.967997,11.8559989 117.48,12.08 C117.992003,12.3040011 118.815994,12.5359988 119.952,12.776 C121.232006,13.0480014 122.291996,13.3399984 123.132,13.652 C123.972004,13.9640016 124.699997,14.4599966 125.316,15.14 C125.932003,15.8200034 126.24,16.7439942 126.24,17.912 C126.24,18.920005 125.960003,19.8319959 125.4,20.648 C124.839997,21.4640041 124.000006,22.1159976 122.88,22.604 C121.759994,23.0920024 120.400008,23.336 118.8,23.336 Z M151.392,6.2 L151.392,23 L146.64,23 L146.64,16.448 L140.16,16.448 L140.16,23 L135.408,23 L135.408,6.2 L140.16,6.2 L140.16,12.512 L146.64,12.512 L146.64,6.2 L151.392,6.2 Z M163.224,23.336 C161.447991,23.336 159.852007,22.9600038 158.436,22.208 C157.019993,21.4559962 155.908004,20.4160066 155.1,19.088 C154.291996,17.7599934 153.888,16.2640083 153.888,14.6 C153.888,12.9359917 154.291996,11.4400066 155.1,10.112 C155.908004,8.78399336 157.019993,7.74400376 158.436,6.992 C159.852007,6.23999624 161.447991,5.864 163.224,5.864 C165.000009,5.864 166.595993,6.23999624 168.012,6.992 C169.428007,7.74400376 170.539996,8.78399336 171.348,10.112 C172.156004,11.4400066 172.56,12.9359917 172.56,14.6 C172.56,16.2640083 172.156004,17.7599934 171.348,19.088 C170.539996,20.4160066 169.428007,21.4559962 168.012,22.208 C166.595993,22.9600038 165.000009,23.336 163.224,23.336 Z M163.224,19.4 C164.072004,19.4 164.839997,19.200002 165.528,18.8 C166.216003,18.399998 166.759998,17.8360036 167.16,17.108 C167.560002,16.3799964 167.76,15.5440047 167.76,14.6 C167.76,13.6559953 167.560002,12.8200036 167.16,12.092 C166.759998,11.3639964 166.216003,10.800002 165.528,10.4 C164.839997,9.999998 164.072004,9.8 163.224,9.8 C162.375996,9.8 161.608003,9.999998 160.92,10.4 C160.231997,10.800002 159.688002,11.3639964 159.288,12.092 C158.887998,12.8200036 158.688,13.6559953 158.688,14.6 C158.688,15.5440047 158.887998,16.3799964 159.288,17.108 C159.688002,17.8360036 160.231997,18.399998 160.92,18.8 C161.608003,19.200002 162.375996,19.4 163.224,19.4 Z M182.4,18.536 L179.808,18.536 L179.808,23 L175.056,23 L175.056,6.2 L182.736,6.2 C184.256008,6.2 185.575994,6.45199748 186.696,6.956 C187.816006,7.46000252 188.679997,8.17999532 189.288,9.116 C189.896003,10.0520047 190.2,11.1519937 190.2,12.416 C190.2,13.6320061 189.916003,14.6919955 189.348,15.596 C188.779997,16.5000045 187.968005,17.2079974 186.912,17.72 L190.536,23 L185.448,23 L182.4,18.536 Z M185.4,12.416 C185.4,11.6319961 185.152002,11.0240022 184.656,10.592 C184.159998,10.1599978 183.424005,9.944 182.448,9.944 L179.808,9.944 L179.808,14.864 L182.448,14.864 C183.424005,14.864 184.159998,14.6520021 184.656,14.228 C185.152002,13.8039979 185.4,13.2000039 185.4,12.416 Z M209.856,6.2 L202.656,23 L197.976,23 L190.8,6.2 L195.936,6.2 L200.496,17.144 L205.152,6.2 L209.856,6.2 Z M222.456,19.736 L215.352,19.736 L214.032,23 L209.184,23 L216.6,6.2 L221.28,6.2 L228.72,23 L223.776,23 L222.456,19.736 Z M221.064,16.232 L218.904,10.856 L216.744,16.232 L221.064,16.232 Z M233.64,9.968 L228.48,9.968 L228.48,6.2 L243.528,6.2 L243.528,9.968 L238.392,9.968 L238.392,23 L233.64,23 L233.64,9.968 Z M261.288,6.2 L261.288,23 L256.536,23 L256.536,16.448 L250.056,16.448 L250.056,23 L245.304,23 L245.304,6.2 L250.056,6.2 L250.056,12.512 L256.536,12.512 L256.536,6.2 L261.288,6.2 Z"
                  id="Akos-Horvath"></path>
            <g id="ICON" fill-rule="nonzero">
                <path d="M22.4189005,2.12483395 C22.7014105,0.994793785 23.8465087,0.307734866 24.9765489,0.590244909 C26.1065891,0.872754951 26.793648,2.01785315 26.5111379,3.14789332 L20.5006642,27.1897884 C20.2181541,28.3198285 19.0730559,29.0068875 17.9430158,28.7243774 C16.8129756,28.4418674 16.1259167,27.2967692 16.4084267,26.166729 L22.4189005,2.12483395 Z"
                      id="Line"></path>
                <path d="M29.1967138,6.70164122 C28.4075464,5.84489297 28.4623315,4.51061473 29.3190798,3.72144735 C30.175828,2.93227997 31.5101063,2.98706508 32.2992736,3.84381333 L41.0415336,13.3347224 C41.7904403,14.1477623 41.784556,15.4010816 41.0280479,16.2070535 L32.1196125,25.6979626 C31.3224352,26.547263 29.9877013,26.589517 29.138401,25.7923398 C28.2891007,24.9951625 28.2468466,23.6604286 29.0440239,22.8111283 L36.6103187,14.750115 L29.1967138,6.70164122 Z"
                      id="Line-Copy"></path>
                <path d="M0.723986516,6.70164122 C-0.065180864,5.84489297 -0.0103957481,4.51061473 0.846352497,3.72144735 C1.70310074,2.93227997 3.03737899,2.98706508 3.82654637,3.84381333 L12.5688063,13.3347224 C13.3177131,14.1477623 13.3118287,15.4010816 12.5553207,16.2070535 L3.64688521,25.6979626 C2.84970791,26.547263 1.51497407,26.589517 0.665673727,25.7923398 C-0.183626612,24.9951625 -0.225880686,23.6604286 0.571296612,22.8111283 L8.13759142,14.750115 L0.723986516,6.70164122 Z"
                      id="Line-Copy-2"
                      transform="translate(6.563305, 14.763634) scale(-1, 1) translate(-6.563305, -14.763634) "></path>
            </g>
        </g>
        <rect id="Rectangle-2" stroke="#fff" stroke-width="3" stroke-linejoin="round" fill-rule="nonzero" x="10" y="10"
              width="299" height="45"></rect>
    </g>
</svg>