<?xml version="1.0" encoding="UTF-8"?>
<svg width="204px" height="65px" viewBox="0 0 204 65" version="1.1" xmlns="http://www.w3.org/2000/svg" xmlns:xlink="http://www.w3.org/1999/xlink">
    <g id="Icon_v1" stroke="none" stroke-width="1" fill="none" fill-rule="evenodd">
        <text id="Akos-Horvath" font-family="Montserrat-Medium, Montserrat" font-size="22" font-weight="400" line-spacing="24" fill="#fff">
            <tspan x="76.452" y="29.7700806">AKOS</tspan>
            <tspan x="139.064" y="29" font-family="Montserrat-ExtraBold, Montserrat" font-weight="600"> </tspan>
            <tspan x="75" y="54" font-family="Montserrat-ExtraBold, Montserrat" font-weight="600">HORVATH</tspan>
        </text>
        <g id="Group-2" transform="translate(10.000000, 12.000000)" fill-rule="nonzero">
            <g id="ICON" transform="translate(7.560000, 7.538462)" fill="#fff">
                <path d="M20.8226748,1.9523047 C21.0850701,0.914019931 22.1486373,0.282747847 23.1982186,0.54231904 C24.2477999,0.801890233 24.8859403,1.85401037 24.6235449,2.89229514 L19.0410169,24.9820705 C18.7786216,26.0203553 17.7150544,26.6516274 16.665473,26.3920562 C15.6158917,26.132485 14.9777514,25.0803648 15.2401467,24.0420801 L20.8226748,1.9523047 Z" id="Line"></path>
                <path d="M27.1179078,6.15749086 C26.3849291,5.37030764 26.4358135,4.14436823 27.2315613,3.41927855 C28.0273091,2.69418886 29.2665867,2.74452561 29.9995654,3.53170883 L38.1193764,12.2519885 C38.814961,12.9990124 38.8094956,14.1505664 38.1068509,14.8910962 L29.8326961,23.6113759 C29.0922778,24.391716 27.852577,24.4305392 27.0637468,23.6980899 C26.2749167,22.9656407 26.2356711,21.7392827 26.9760894,20.9589426 L34.003664,13.5524561 L27.1179078,6.15749086 Z" id="Line-Copy"></path>
                <path d="M0.672438676,6.15749086 C-0.0605399865,5.37030764 -0.00965557079,4.14436823 0.786092199,3.41927855 C1.58183997,2.69418886 2.8211176,2.74452561 3.55409626,3.53170883 L11.6739073,12.2519885 C12.3694919,12.9990124 12.3640265,14.1505664 11.6613818,14.8910962 L3.38722698,23.6113759 C2.64680871,24.391716 1.40710791,24.4305392 0.618277757,23.6980899 C-0.170552397,22.9656407 -0.209797981,21.7392827 0.530620293,20.9589426 L7.55819491,13.5524561 L0.672438676,6.15749086 Z" id="Line-Copy-2" transform="translate(6.095998, 13.564878) scale(-1, 1) translate(-6.095998, -13.564878) "></path>
            </g>
            <rect id="Rectangle-2-Copy" stroke="#fff" stroke-width="3" stroke-linejoin="round" x="0" y="0" width="54" height="42"></rect>
        </g>
    </g>
</svg>